<?xml version="1.0" standalone="no"?>
<!DOCTYPE svg PUBLIC "-//W3C//DTD SVG 20010904//EN"
 "http://www.w3.org/TR/2001/REC-SVG-20010904/DTD/svg10.dtd">
<svg version="1.0" xmlns="http://www.w3.org/2000/svg"
 width="1000.000000pt" height="1000.000000pt" viewBox="0 0 1000.000000 1000.000000"
 preserveAspectRatio="xMidYMid meet">
<metadata>
Created by potrace 1.14, written by Peter Selinger 2001-2017
</metadata>
<g transform="translate(0.000000,1000.000000) scale(0.100000,-0.100000)"
fill="#000000" stroke="none">
<path d="M3230 8839 c-142 -30 -322 -109 -430 -188 -230 -168 -395 -344 -563
-601 -109 -167 -188 -316 -260 -490 -63 -153 -136 -396 -152 -505 -3 -23 -7
-50 -9 -62 -15 -77 -21 -186 -21 -383 1 -210 10 -446 20 -480 4 -15 9 -84 22
-285 14 -220 7 -797 -12 -893 -1 -10 -6 -49 -10 -87 -6 -71 -27 -213 -44 -315
-35 -195 -46 -253 -77 -410 -19 -96 -37 -186 -40 -200 -3 -14 -28 -126 -56
-250 -27 -124 -52 -238 -55 -255 -2 -16 -9 -48 -15 -70 -5 -22 -12 -51 -13
-65 -2 -14 -11 -54 -19 -90 -8 -36 -18 -81 -21 -100 -3 -19 -14 -78 -25 -130
-11 -52 -22 -106 -24 -120 -3 -14 -10 -50 -16 -80 -6 -30 -13 -68 -16 -85 -7
-47 -25 -147 -30 -175 -2 -14 -7 -47 -10 -75 -4 -27 -8 -57 -9 -65 -2 -8 -6
-40 -10 -70 -4 -30 -9 -66 -11 -80 -26 -164 -26 -553 1 -695 20 -104 71 -213
128 -273 57 -60 147 -103 243 -117 51 -7 171 -8 214 -1 14 3 48 7 75 11 82 10
291 64 430 112 237 80 654 246 850 338 84 39 147 65 170 71 14 3 25 10 25 15
0 5 6 9 14 9 8 0 47 15 88 34 130 60 167 76 172 76 3 0 43 18 90 40 47 21 170
76 273 120 104 45 207 90 230 101 24 10 45 19 48 19 3 0 24 9 48 20 61 28 456
186 551 221 45 16 90 33 101 38 70 30 539 201 830 303 370 129 570 199 635
225 36 14 70 26 75 28 6 1 17 5 25 8 8 3 83 31 165 62 83 30 159 60 170 65 11
5 99 40 195 79 262 104 319 128 540 237 254 125 490 268 615 375 44 37 191
184 215 215 241 311 208 675 -105 1149 -105 159 -203 285 -365 469 -54 61
-385 393 -490 491 -151 141 -268 246 -415 370 -82 70 -161 137 -175 149 -14
12 -50 42 -80 66 -30 25 -64 52 -75 62 -148 122 -481 389 -721 577 -39 31 -88
70 -109 86 -21 17 -75 58 -119 93 -45 35 -94 74 -111 87 -59 47 -182 143 -310
240 -71 55 -135 104 -142 110 -44 37 -223 168 -363 265 -74 51 -153 106 -175
122 -154 110 -390 252 -555 334 -198 99 -322 147 -485 188 -104 26 -117 28
-270 31 -122 3 -168 0 -245 -16z"/>
</g>
</svg>
